<svg id="Layer_1" enable-background="new 0 0 512 512" height="512" viewBox="0 0 512 512" width="512"
     xmlns="http://www.w3.org/2000/svg">
    <path d="m497 261.15h-106.157v-78.198c0-5.454-2.96-10.478-7.73-13.121l-112.113-62.119v-24.856h49.073c8.284 0 15-6.716 15-15v-48.692c0-8.284-6.716-15-15-15h-64.073c-8.284 0-15 6.716-15 15v48.692 39.855l-112.112 62.12c-4.771 2.643-7.73 7.667-7.73 13.121v78.198h-106.158c-8.284 0-15 6.716-15 15v216.686c0 8.284 6.716 15 15 15h482c8.284 0 15-6.716 15-15v-216.686c0-8.284-6.716-15-15-15zm-191.927-208.294h-34.073v-18.692h34.073zm-275.073 238.294h91.157v186.686h-91.157zm121.157-15v-84.36l104.843-58.093 104.843 58.093v84.36 201.686h-28.964v-82.371c0-41.549-33.802-75.351-75.351-75.351h-1.057c-41.549 0-75.351 33.802-75.351 75.351v82.371h-28.964v-201.686zm58.964 119.315c0-19.947 12.949-36.914 30.879-42.969v125.341h-30.879zm60.879 82.371v-125.341c17.929 6.055 30.879 23.023 30.879 42.969v82.371h-30.879zm211 0h-91.157v-186.686h91.157z"/>
    <path d="m87.021 368.97h-22.885c-8.284 0-15 6.716-15 15s6.716 15 15 15h22.886c8.284 0 15-6.716 15-15s-6.716-15-15.001-15z"/>
    <path d="m87.021 319.834h-22.885c-8.284 0-15 6.716-15 15s6.716 15 15 15h22.886c8.284 0 15-6.716 15-15s-6.716-15-15.001-15z"/>
    <path d="m424.979 398.97h22.886c8.284 0 15-6.716 15-15s-6.716-15-15-15h-22.886c-8.284 0-15 6.716-15 15s6.715 15 15 15z"/>
    <path d="m424.979 349.834h22.886c8.284 0 15-6.716 15-15s-6.716-15-15-15h-22.886c-8.284 0-15 6.716-15 15s6.715 15 15 15z"/>
    <path d="m256 290.871c30.444 0 55.212-24.768 55.212-55.212s-24.768-55.212-55.212-55.212-55.212 24.768-55.212 55.212 24.768 55.212 55.212 55.212zm0-80.425c13.902 0 25.212 11.31 25.212 25.212s-11.31 25.212-25.212 25.212-25.212-11.31-25.212-25.212 11.31-25.212 25.212-25.212z"/>
</svg>